<svg xmlns="http://www.w3.org/2000/svg" viewBox="0 0 60 72" fill="none" width="60" height="72">
  <defs>
    <linearGradient id="eg" x1="0" y1="0" x2="60" y2="72" gradientUnits="userSpaceOnUse">
      <stop offset="0%"   stop-color="#f97316"/>
      <stop offset="55%"  stop-color="#fb923c"/>
      <stop offset="100%" stop-color="#ffffff" stop-opacity="0.9"/>
    </linearGradient>
    <radialGradient id="ng" cx="38%" cy="32%" r="65%">
      <stop offset="0%"   stop-color="#ffffff"/>
      <stop offset="100%" stop-color="#f97316"/>
    </radialGradient>
    <filter id="glow" x="-80%" y="-80%" width="260%" height="260%">
      <feGaussianBlur stdDeviation="2" result="blur"/>
      <feMerge>
        <feMergeNode in="blur"/>
        <feMergeNode in="SourceGraphic"/>
      </feMerge>
    </filter>
  </defs>
  <line x1="30" y1="5"  x2="7"  y2="22" stroke="url(#eg)" stroke-width="1.6" stroke-opacity="0.75" stroke-linecap="round"/>
  <line x1="30" y1="5"  x2="53" y2="20" stroke="url(#eg)" stroke-width="1.6" stroke-opacity="0.75" stroke-linecap="round"/>
  <line x1="30" y1="5"  x2="28" y2="36" stroke="url(#eg)" stroke-width="1.6" stroke-opacity="0.75" stroke-linecap="round"/>
  <line x1="7"  y1="22" x2="53" y2="20" stroke="url(#eg)" stroke-width="1.6" stroke-opacity="0.75" stroke-linecap="round"/>
  <line x1="7"  y1="22" x2="28" y2="36" stroke="url(#eg)" stroke-width="1.6" stroke-opacity="0.75" stroke-linecap="round"/>
  <line x1="7"  y1="22" x2="9"  y2="52" stroke="url(#eg)" stroke-width="1.6" stroke-opacity="0.75" stroke-linecap="round"/>
  <line x1="53" y1="20" x2="28" y2="36" stroke="url(#eg)" stroke-width="1.6" stroke-opacity="0.75" stroke-linecap="round"/>
  <line x1="53" y1="20" x2="51" y2="52" stroke="url(#eg)" stroke-width="1.6" stroke-opacity="0.75" stroke-linecap="round"/>
  <line x1="28" y1="36" x2="9"  y2="52" stroke="url(#eg)" stroke-width="1.6" stroke-opacity="0.75" stroke-linecap="round"/>
  <line x1="28" y1="36" x2="51" y2="52" stroke="url(#eg)" stroke-width="1.6" stroke-opacity="0.75" stroke-linecap="round"/>
  <line x1="28" y1="36" x2="28" y2="65" stroke="url(#eg)" stroke-width="1.6" stroke-opacity="0.75" stroke-linecap="round"/>
  <line x1="9"  y1="52" x2="51" y2="52" stroke="url(#eg)" stroke-width="1.6" stroke-opacity="0.75" stroke-linecap="round"/>
  <line x1="9"  y1="52" x2="28" y2="65" stroke="url(#eg)" stroke-width="1.6" stroke-opacity="0.75" stroke-linecap="round"/>
  <line x1="51" y1="52" x2="28" y2="65" stroke="url(#eg)" stroke-width="1.6" stroke-opacity="0.75" stroke-linecap="round"/>
  <line x1="7"  y1="22" x2="51" y2="52" stroke="url(#eg)" stroke-width="1.6" stroke-opacity="0.75" stroke-linecap="round"/>
  <line x1="53" y1="20" x2="9"  y2="52" stroke="url(#eg)" stroke-width="1.6" stroke-opacity="0.75" stroke-linecap="round"/>
  <circle cx="30" cy="5"  r="3"   fill="url(#ng)" filter="url(#glow)"/>
  <circle cx="7"  cy="22" r="3"   fill="url(#ng)" filter="url(#glow)"/>
  <circle cx="53" cy="20" r="3"   fill="url(#ng)" filter="url(#glow)"/>
  <circle cx="28" cy="36" r="4.5" fill="url(#ng)" filter="url(#glow)"/>
  <circle cx="9"  cy="52" r="3"   fill="url(#ng)" filter="url(#glow)"/>
  <circle cx="51" cy="52" r="3"   fill="url(#ng)" filter="url(#glow)"/>
  <circle cx="28" cy="65" r="3"   fill="url(#ng)" filter="url(#glow)"/>
</svg>
